<svg xmlns="http://www.w3.org/2000/svg" width="30" height="30" viewBox="0 0 30 30">
  <defs>
    <style>
      .cls-1 {
        fill: #63562f;
        fill-rule: evenodd;
      }
    </style>
  </defs>
  <path id="Search" class="cls-1" d="M1265.9,106.8a11.149,11.149,0,0,0-2.74-15.727,11.652,11.652,0,0,0-16.04,2.689,11.131,11.131,0,0,0,2.74,15.726,11.7,11.7,0,0,0,12.5.507l8.49,8.268a2.436,2.436,0,0,0,3.4.086,2.338,2.338,0,0,0,.09-3.338c-0.03-.03-0.06-0.057-0.09-0.086Zm-9.4.771a7.416,7.416,0,1,1,.01,0h-0.01Z" transform="translate(-1245 -89)"/>
</svg>
